<?xml version="1.0" encoding="UTF-8"?>
<svg xmlns="http://www.w3.org/2000/svg" width="393" height="441" viewBox="0 0 393 441" role="img" aria-label="Laplace icon smoothed">
  <title>Laplace icon smoothed trace</title>
  <path fill="#0A1436" fill-rule="evenodd" d="
    M 216.200 404.068 L 206.500 403.945 L 201.600 403.002 L 198.800 402.104 L 196.600 401.133 L 194.800 400.112 L 194.246 399.500 L 193.363 399.200 L 191.200 397.581 L 181.800 392.039 L 178.100 389.524 L 176.831 389.100 L 176.200 388.412 L 173.500 387.161 L 171.117 385.600 L 169.900 385.140 L 169.100 384.416 L 161.200 379.496 L 160.000 378.990 L 158.100 377.625 L 156.600 377.088 L 156.055 376.600 L 154.900 376.056 L 154.300 375.421 L 153.300 375.039 L 145.993 370.500 L 143.400 369.079 L 141.000 367.436 L 137.600 365.679 L 136.300 364.609 L 135.000 364.185 L 134.292 363.600 L 133.400 363.243 L 129.397 360.700 L 128.500 360.328 L 125.874 358.500 L 121.640 356.200 L 116.231 352.800 L 113.300 351.258 L 107.352 347.300 L 103.400 345.263 L 101.100 343.728 L 94.500 340.013 L 92.578 338.600 L 91.697 338.200 L 91.024 337.600 L 87.564 335.500 L 84.600 333.951 L 81.100 331.781 L 79.600 331.159 L 78.757 330.400 L 74.300 327.974 L 70.444 325.300 L 69.226 324.200 L 66.800 321.375 L 63.822 317.300 L 62.716 315.300 L 60.653 310.300 L 59.597 306.200 L 59.270 301.300 L 59.228 150.500 L 59.755 145.100 L 61.804 139.400 L 63.815 135.400 L 66.467 131.600 L 67.860 130.000 L 72.700 125.925 L 77.800 122.882 L 85.300 118.764 L 86.600 117.780 L 87.999 117.200 L 90.400 115.566 L 94.900 112.947 L 100.194 110.100 L 102.500 108.578 L 105.200 107.223 L 106.000 106.588 L 108.200 105.425 L 117.500 99.723 L 121.650 97.600 L 124.643 95.600 L 135.614 89.300 L 136.400 88.575 L 137.300 88.350 L 138.053 87.800 L 139.258 87.300 L 151.700 79.749 L 154.400 78.419 L 155.172 77.800 L 156.300 77.397 L 161.700 73.923 L 163.100 73.287 L 168.700 69.851 L 172.014 68.200 L 173.800 66.957 L 180.148 63.400 L 182.500 61.838 L 185.435 60.300 L 186.500 59.539 L 187.200 59.300 L 196.600 53.003 L 199.400 51.772 L 204.600 50.243 L 209.700 49.613 L 216.200 49.705 L 219.200 50.145 L 222.300 50.993 L 227.000 52.947 L 230.100 54.849 L 233.565 57.400 L 234.500 57.722 L 236.600 59.107 L 241.553 61.700 L 244.129 63.400 L 246.500 64.645 L 247.419 65.400 L 248.400 65.852 L 250.700 67.431 L 262.024 73.800 L 262.720 74.400 L 268.001 77.500 L 269.200 78.017 L 272.800 80.267 L 274.300 80.970 L 279.200 83.805 L 280.000 84.433 L 286.100 87.820 L 291.803 91.400 L 296.300 93.866 L 301.700 97.319 L 302.890 97.900 L 303.700 98.580 L 309.370 101.700 L 321.700 109.243 L 327.961 112.800 L 336.805 118.300 L 338.213 118.900 L 348.200 124.690 L 352.200 127.784 L 355.000 130.729 L 357.078 133.500 L 359.070 136.700 L 361.074 140.800 L 361.700 143.527 L 362.238 144.900 L 363.090 151.900 L 362.926 193.800 L 362.973 301.100 L 362.194 308.200 L 360.007 314.000 L 358.818 316.400 L 355.595 321.200 L 354.022 323.100 L 350.890 326.100 L 348.100 328.141 L 344.700 329.885 L 339.300 333.287 L 333.643 336.500 L 329.400 339.274 L 313.704 348.500 L 308.200 352.050 L 297.409 358.300 L 296.500 359.100 L 288.600 363.561 L 287.700 364.232 L 286.600 364.657 L 273.400 372.959 L 270.365 374.600 L 268.200 376.099 L 265.527 377.400 L 258.300 382.040 L 253.700 384.579 L 251.300 386.180 L 248.700 387.516 L 246.300 389.230 L 233.600 396.585 L 229.000 399.868 L 226.900 401.052 L 222.000 402.919 L 218.100 403.846 Z M 213.200 395.358 L 219.321 394.600 L 223.100 393.131 L 224.200 392.511 L 226.500 390.638 L 227.413 390.300 L 235.600 385.050 L 243.712 380.400 L 244.500 379.692 L 245.400 379.390 L 247.600 377.893 L 248.720 377.400 L 252.600 374.805 L 263.553 368.500 L 266.100 366.759 L 267.200 366.270 L 269.300 364.737 L 270.300 364.360 L 274.013 362.200 L 277.600 359.819 L 285.288 355.400 L 290.700 351.928 L 295.400 349.195 L 296.300 348.890 L 298.100 347.846 L 302.600 344.715 L 305.200 343.303 L 310.700 339.781 L 315.142 337.400 L 317.500 335.689 L 318.465 335.300 L 324.400 331.494 L 333.300 326.498 L 342.389 320.800 L 343.400 320.438 L 346.116 318.400 L 346.600 317.655 L 347.305 317.300 L 350.100 313.119 L 351.245 311.100 L 352.655 307.300 L 353.369 304.200 L 353.736 301.200 L 353.726 151.800 L 353.360 148.600 L 352.729 145.800 L 351.223 141.700 L 349.400 138.548 L 347.300 135.646 L 345.258 133.700 L 343.495 132.500 L 340.700 131.045 L 336.400 128.386 L 335.400 127.978 L 333.200 126.461 L 327.500 123.298 L 325.300 121.681 L 324.300 121.339 L 322.400 120.245 L 316.500 116.409 L 315.500 116.033 L 307.400 111.264 L 303.300 108.515 L 302.500 108.224 L 299.985 106.600 L 298.600 105.964 L 296.400 104.469 L 295.500 104.191 L 294.500 103.479 L 293.520 103.100 L 291.214 101.500 L 288.600 100.138 L 287.825 99.500 L 280.600 95.362 L 274.400 91.513 L 273.300 91.185 L 264.487 85.600 L 263.500 85.244 L 254.700 80.083 L 250.830 77.600 L 249.600 77.034 L 238.587 70.500 L 237.600 70.083 L 236.932 69.500 L 232.551 67.100 L 224.000 61.474 L 218.792 59.400 L 212.900 58.561 L 205.500 59.334 L 199.746 61.700 L 196.784 63.600 L 196.240 64.200 L 195.276 64.600 L 194.527 65.300 L 193.600 65.580 L 193.100 66.157 L 192.100 66.511 L 191.300 67.132 L 188.700 68.443 L 184.800 71.056 L 181.700 72.655 L 179.300 74.249 L 176.542 75.600 L 171.100 78.974 L 169.914 79.500 L 167.800 80.939 L 166.700 81.439 L 165.900 82.104 L 164.700 82.687 L 162.434 84.200 L 156.500 87.416 L 155.500 88.179 L 147.300 93.080 L 146.200 93.495 L 145.400 94.159 L 140.900 96.600 L 138.400 98.254 L 137.467 98.600 L 135.300 100.109 L 133.827 100.700 L 126.400 105.360 L 120.500 108.404 L 116.100 111.169 L 105.105 117.400 L 102.479 119.100 L 92.052 125.100 L 89.600 126.310 L 85.300 129.054 L 78.700 132.555 L 75.574 134.800 L 73.681 136.800 L 72.388 138.800 L 70.800 141.740 L 69.541 144.800 L 69.101 147.400 L 68.603 148.700 L 68.402 151.500 L 68.342 301.100 L 68.500 303.533 L 69.500 307.749 L 71.459 312.200 L 72.607 314.200 L 73.900 315.903 L 77.333 319.400 L 85.300 323.756 L 97.515 331.300 L 98.484 331.700 L 103.500 334.628 L 110.841 339.200 L 119.500 344.226 L 120.500 344.620 L 121.500 345.348 L 123.000 346.017 L 123.500 345.714 L 128.730 339.800 L 129.300 339.384 L 129.800 338.600 L 137.100 330.827 L 137.798 329.800 L 138.398 329.400 L 138.800 328.718 L 139.459 328.300 L 143.266 324.200 L 145.103 321.900 L 149.600 317.334 L 153.708 312.500 L 158.150 308.000 L 159.700 305.971 L 160.477 305.400 L 161.900 303.725 L 165.400 300.453 L 165.853 299.700 L 168.100 297.292 L 168.700 296.365 L 170.800 294.406 L 173.800 290.844 L 176.500 288.449 L 176.900 287.796 L 178.447 286.300 L 181.573 282.700 L 184.300 280.439 L 185.900 278.656 L 186.900 277.857 L 188.300 277.486 L 189.500 277.848 L 190.347 278.500 L 190.787 279.500 L 190.764 280.600 L 190.300 281.570 L 186.400 285.373 L 185.112 287.000 L 184.400 287.541 L 181.625 290.500 L 178.300 294.351 L 175.400 297.119 L 170.197 303.100 L 167.552 305.600 L 164.482 309.300 L 160.700 313.103 L 158.100 316.094 L 152.789 321.600 L 151.494 323.300 L 145.500 329.373 L 145.029 330.200 L 143.600 331.631 L 142.300 333.333 L 141.600 333.801 L 134.110 342.100 L 132.600 343.523 L 131.211 345.300 L 130.565 345.800 L 128.343 348.500 L 128.065 349.200 L 128.462 349.600 L 130.300 350.493 L 131.700 351.500 L 138.400 355.322 L 142.800 358.231 L 145.400 359.639 L 156.400 366.468 L 157.300 366.825 L 159.626 368.400 L 165.600 371.620 L 166.600 372.455 L 169.200 373.851 L 177.800 379.252 L 179.098 379.700 L 179.744 380.300 L 188.400 385.403 L 189.300 385.746 L 189.908 386.400 L 191.100 386.944 L 195.900 389.908 L 197.600 391.323 L 200.900 393.279 L 204.700 394.651 L 209.471 395.300 Z M 211.000 270.112 L 209.700 269.840 L 208.729 269.100 L 208.431 268.600 L 208.189 267.300 L 208.009 262.000 L 208.146 251.600 L 207.947 215.800 L 208.185 179.800 L 208.001 173.700 L 208.254 132.900 L 208.202 90.000 L 207.913 88.200 L 207.939 85.700 L 208.487 84.300 L 209.800 83.019 L 211.000 82.729 L 211.900 82.879 L 213.123 83.700 L 213.835 85.700 L 213.694 92.800 L 213.814 174.200 L 213.663 179.300 L 213.788 264.100 L 213.659 265.400 L 213.797 266.500 L 213.453 268.200 L 213.100 268.943 L 211.900 269.912 Z M 84.900 301.760 L 83.665 300.900 L 83.060 299.500 L 83.515 298.000 L 84.700 296.956 L 87.600 295.890 L 89.283 295.500 L 90.600 294.864 L 92.200 294.566 L 93.600 293.889 L 98.100 292.557 L 98.526 292.100 L 98.533 224.600 L 98.639 223.500 L 98.973 222.700 L 99.636 221.900 L 100.400 221.525 L 108.300 219.348 L 112.700 217.906 L 114.600 217.620 L 116.500 216.869 L 118.300 216.434 L 119.500 215.865 L 121.856 215.400 L 128.000 213.596 L 128.903 213.100 L 129.240 212.200 L 129.209 195.900 L 129.378 194.500 L 129.910 193.800 L 131.600 192.937 L 142.266 190.200 L 144.500 189.463 L 145.612 189.300 L 146.800 188.731 L 149.000 188.359 L 154.000 186.856 L 156.062 186.500 L 158.975 185.400 L 159.134 185.000 L 159.011 147.900 L 159.163 146.800 L 159.500 146.000 L 160.700 144.829 L 163.196 143.400 L 163.800 142.874 L 169.092 140.100 L 173.400 137.433 L 175.860 136.300 L 186.600 129.797 L 191.100 127.535 L 192.300 127.415 L 193.400 127.735 L 194.367 128.600 L 194.818 129.600 L 194.991 133.600 L 195.012 266.600 L 194.866 269.000 L 194.500 269.983 L 193.000 271.057 L 186.800 272.626 L 185.300 273.202 L 182.000 273.879 L 180.500 274.421 L 178.600 274.700 L 174.200 276.065 L 168.600 277.404 L 166.600 278.136 L 164.700 278.486 L 163.500 279.082 L 161.574 279.400 L 153.400 281.973 L 142.901 284.800 L 141.900 285.270 L 136.823 286.500 L 135.400 287.183 L 133.294 287.600 L 131.600 288.257 L 130.044 288.500 L 128.900 289.040 L 126.800 289.473 L 125.400 290.068 L 123.800 290.387 L 122.200 291.034 L 108.600 295.000 L 105.400 296.240 L 103.376 296.600 L 101.400 297.309 L 99.800 297.624 L 85.700 301.989 Z M 226.500 134.305 L 226.107 133.900 L 225.852 133.200 L 225.681 130.600 L 225.972 129.800 L 226.797 128.900 L 228.600 127.736 L 230.200 127.566 L 230.800 127.729 L 232.300 128.698 L 233.256 129.600 L 233.580 130.400 L 233.561 131.400 L 233.265 132.200 L 232.700 132.729 L 231.600 133.077 L 230.500 132.862 L 229.600 134.354 L 228.800 134.751 L 227.800 134.759 Z M 239.300 137.010 L 238.500 137.369 L 237.400 137.329 L 234.700 135.889 L 233.957 135.000 L 233.702 134.400 L 233.576 133.400 L 233.836 132.700 L 235.000 131.661 L 235.800 131.436 L 236.900 131.688 L 238.500 132.715 L 240.000 133.996 L 240.336 134.800 L 240.216 135.900 Z M 164.700 273.090 L 172.300 271.271 L 177.600 269.675 L 180.000 269.268 L 181.400 268.624 L 183.222 268.300 L 184.700 267.641 L 187.300 267.381 L 188.300 266.646 L 189.309 266.500 L 189.623 266.100 L 189.429 161.100 L 189.549 141.800 L 189.336 136.500 L 189.543 134.900 L 189.300 134.498 L 183.701 137.400 L 179.602 140.000 L 174.892 142.600 L 174.200 143.171 L 168.017 146.500 L 167.400 147.083 L 166.301 147.400 L 165.600 148.079 L 164.681 148.500 L 164.400 149.000 L 164.267 150.000 L 164.437 185.400 L 164.291 187.100 L 164.458 188.800 L 164.370 272.400 Z M 228.200 143.288 L 227.100 143.044 L 226.200 142.427 L 225.841 141.700 L 225.614 140.400 L 225.653 137.600 L 225.811 137.000 L 226.800 135.916 L 228.100 135.558 L 229.300 135.839 L 230.152 136.600 L 230.447 137.500 L 230.531 139.600 L 230.369 141.300 L 230.025 142.400 L 229.300 142.931 Z M 247.481 141.300 L 246.400 142.271 L 245.700 142.414 L 244.800 142.226 L 242.700 141.264 L 241.259 140.100 L 240.577 139.300 L 240.237 138.200 L 240.483 137.100 L 242.200 135.816 L 243.300 135.713 L 244.200 135.971 L 247.614 138.400 L 247.876 139.600 Z M 253.828 146.000 L 253.200 146.334 L 251.600 146.238 L 248.600 144.296 L 248.056 143.600 L 247.817 142.900 L 247.835 141.900 L 248.129 141.300 L 249.300 140.410 L 250.300 140.245 L 251.700 140.673 L 253.500 141.882 L 254.331 142.800 L 254.807 144.100 L 254.671 144.800 Z M 227.900 159.869 L 227.300 159.712 L 226.464 159.100 L 225.860 158.400 L 225.617 157.700 L 225.618 154.500 L 225.770 153.700 L 226.375 152.700 L 227.621 151.900 L 225.909 150.200 L 225.638 147.400 L 225.749 145.600 L 225.993 145.000 L 226.900 144.249 L 228.200 143.723 L 228.900 143.936 L 229.800 144.590 L 230.415 145.900 L 230.533 147.700 L 230.304 150.000 L 230.022 150.600 L 228.861 151.900 L 230.249 153.400 L 230.572 155.500 L 230.468 157.500 L 229.950 158.800 L 229.100 159.551 Z M 258.400 152.022 L 257.000 151.866 L 255.900 150.928 L 255.672 150.400 L 255.537 149.000 L 254.877 147.400 L 254.906 146.400 L 255.449 145.300 L 256.000 144.857 L 257.100 144.505 L 258.000 144.579 L 258.900 145.133 L 260.101 146.300 L 260.517 147.300 L 260.384 149.400 L 260.078 150.500 L 259.200 151.632 Z M 258.300 166.317 L 256.600 165.964 L 255.769 165.000 L 255.556 164.400 L 255.850 162.300 L 257.100 161.000 L 255.967 160.100 L 255.587 159.400 L 255.318 155.700 L 256.000 153.759 L 256.900 153.036 L 257.800 152.798 L 258.800 152.962 L 259.788 153.900 L 260.157 154.600 L 260.344 155.700 L 260.340 157.400 L 259.998 159.100 L 258.498 160.900 L 259.400 161.770 L 260.022 162.700 L 260.194 163.900 L 259.220 165.700 Z M 227.500 168.340 L 226.900 168.083 L 225.659 166.600 L 225.729 162.800 L 226.020 161.900 L 226.700 161.087 L 227.400 160.658 L 228.300 160.584 L 229.400 160.935 L 230.273 162.100 L 230.584 163.700 L 230.470 166.100 L 230.167 167.100 L 229.361 167.900 L 228.800 168.159 Z M 257.100 174.965 L 255.921 174.300 L 255.401 173.500 L 255.311 168.900 L 255.672 167.800 L 256.300 166.865 L 258.500 166.542 L 259.500 167.139 L 260.188 168.300 L 260.227 172.700 L 259.831 174.000 L 259.300 174.612 L 258.400 174.985 Z M 227.800 176.863 L 227.100 176.625 L 225.843 175.600 L 225.611 173.500 L 225.729 171.300 L 225.953 170.600 L 226.700 169.632 L 227.800 169.305 L 228.800 169.279 L 229.649 169.700 L 230.364 171.200 L 230.339 175.000 L 230.100 175.714 L 229.456 176.300 L 228.600 176.770 Z M 257.800 183.974 L 256.600 183.757 L 255.939 183.000 L 255.329 181.300 L 255.231 178.700 L 256.184 176.600 L 257.000 176.031 L 258.200 175.851 L 259.100 176.301 L 259.971 177.400 L 260.311 181.100 L 260.092 182.000 L 259.300 183.313 L 258.600 183.836 Z M 228.100 185.546 L 226.800 185.138 L 225.916 184.200 L 225.696 183.300 L 225.622 180.600 L 225.823 179.500 L 226.360 178.700 L 227.100 178.046 L 228.100 177.838 L 229.200 178.049 L 230.008 178.700 L 230.423 179.700 L 230.623 181.400 L 230.453 183.300 L 230.100 184.320 L 229.300 185.068 Z M 267.261 191.000 L 266.500 192.144 L 265.300 192.467 L 263.100 192.159 L 260.200 190.378 L 258.300 191.764 L 257.500 191.856 L 256.700 191.666 L 255.744 191.000 L 255.360 190.200 L 255.143 188.400 L 255.443 186.300 L 255.831 185.600 L 256.500 184.984 L 258.200 184.790 L 258.900 185.036 L 259.879 186.000 L 260.600 187.540 L 261.200 187.424 L 262.300 186.647 L 263.400 186.759 L 264.399 187.500 L 265.600 187.876 L 267.200 188.955 L 267.491 189.900 Z M 228.100 199.253 L 226.800 198.806 L 225.802 197.600 L 225.711 196.600 L 225.864 195.600 L 227.250 193.900 L 226.000 193.009 L 225.561 191.400 L 225.707 188.500 L 225.919 187.600 L 226.800 186.595 L 228.000 186.068 L 229.000 186.357 L 229.883 187.000 L 230.333 187.700 L 230.543 188.800 L 230.367 192.300 L 230.000 192.991 L 229.116 193.800 L 230.226 195.400 L 230.431 197.500 L 230.100 198.098 L 229.100 198.934 Z M 274.605 194.100 L 273.900 194.640 L 272.500 194.995 L 269.800 194.097 L 268.700 193.329 L 268.229 192.600 L 268.083 191.600 L 268.344 190.600 L 269.300 189.666 L 270.500 189.441 L 271.800 189.643 L 273.800 190.560 L 274.955 191.700 L 275.215 192.200 L 275.187 193.100 Z M 134.800 281.574 L 136.000 281.419 L 138.400 280.531 L 140.491 280.200 L 145.600 278.730 L 147.300 278.409 L 149.000 277.681 L 151.000 277.411 L 152.300 276.797 L 154.076 276.500 L 155.400 275.820 L 158.200 275.111 L 159.154 274.300 L 159.008 267.200 L 159.067 200.400 L 158.866 193.600 L 159.032 191.800 L 158.600 191.329 L 157.900 191.331 L 156.100 192.073 L 153.800 192.510 L 152.100 193.165 L 149.700 193.591 L 147.300 194.407 L 137.800 196.699 L 135.028 197.700 L 134.776 198.000 L 134.544 217.200 L 134.506 281.100 Z M 282.400 197.045 L 281.700 197.354 L 280.100 197.510 L 277.200 196.280 L 275.807 194.600 L 275.812 193.700 L 276.233 192.800 L 277.200 192.075 L 278.400 191.912 L 281.400 192.909 L 282.300 193.411 L 283.028 194.200 L 283.301 195.200 L 283.162 195.800 Z M 257.700 200.321 L 256.600 200.037 L 255.657 199.000 L 255.253 197.500 L 255.202 195.600 L 255.623 193.900 L 256.231 193.000 L 256.800 192.654 L 258.300 192.487 L 259.400 192.895 L 260.173 194.100 L 260.392 195.200 L 260.319 197.300 L 260.051 198.600 L 259.544 199.400 L 258.700 200.121 Z M 287.600 212.088 L 285.511 211.400 L 284.886 210.000 L 284.766 206.700 L 284.970 205.300 L 285.500 204.269 L 286.726 203.600 L 287.257 203.100 L 285.768 202.000 L 284.612 198.600 L 283.855 197.300 L 284.032 196.500 L 284.421 195.900 L 285.600 194.930 L 286.400 194.683 L 287.757 194.900 L 289.313 196.100 L 289.616 196.700 L 289.834 198.500 L 289.765 200.300 L 289.407 201.500 L 288.907 202.200 L 287.629 203.100 L 289.134 204.300 L 289.722 205.400 L 289.731 209.800 L 289.111 211.400 Z M 228.200 207.112 L 227.400 206.967 L 226.700 206.572 L 225.799 205.700 L 225.646 205.100 L 225.680 201.900 L 225.876 201.000 L 226.900 200.115 L 228.200 199.710 L 229.300 200.019 L 230.188 200.900 L 230.454 201.800 L 230.539 204.100 L 230.359 205.200 L 229.963 206.100 L 229.000 206.880 Z M 258.200 208.268 L 256.900 208.046 L 256.000 207.487 L 255.550 206.800 L 255.126 205.300 L 255.269 203.300 L 255.714 201.900 L 256.700 200.995 L 257.800 200.689 L 258.800 200.930 L 259.759 201.800 L 260.213 202.500 L 260.391 203.600 L 260.376 205.400 L 259.955 206.900 L 259.100 207.850 Z M 228.400 215.589 L 227.400 215.441 L 226.414 214.900 L 225.864 214.200 L 225.662 213.200 L 225.690 210.500 L 225.960 209.400 L 226.800 208.470 L 228.100 208.056 L 229.000 208.239 L 229.836 208.800 L 230.329 209.600 L 230.535 210.600 L 230.514 213.300 L 230.333 214.100 L 229.400 215.248 Z M 258.100 216.319 L 256.700 216.113 L 256.000 215.534 L 255.653 214.900 L 255.175 213.000 L 255.264 211.300 L 255.783 209.700 L 256.700 208.998 L 258.100 208.680 L 259.000 209.007 L 259.886 210.000 L 260.310 211.400 L 260.346 213.100 L 260.162 214.200 L 259.647 215.300 L 258.900 216.027 Z M 284.863 218.500 L 284.826 215.700 L 285.072 214.600 L 286.000 213.420 L 287.200 212.942 L 288.100 213.031 L 288.900 213.469 L 290.000 215.487 L 290.432 215.400 L 291.400 214.557 L 292.800 214.573 L 294.300 215.051 L 296.200 216.136 L 296.719 216.700 L 296.969 217.400 L 296.877 218.100 L 296.481 218.900 L 295.100 219.874 L 294.100 220.088 L 293.100 219.971 L 291.600 219.327 L 290.700 218.594 L 290.100 218.441 L 289.800 218.662 L 288.900 220.485 L 288.400 220.853 L 287.700 221.040 L 286.700 220.936 L 285.900 220.440 L 285.129 219.500 Z M 228.400 224.231 L 226.600 223.637 L 225.871 222.900 L 225.657 222.300 L 225.849 217.800 L 226.700 216.787 L 227.900 216.397 L 228.900 216.584 L 229.719 217.200 L 230.242 218.000 L 230.484 219.100 L 230.294 222.700 L 229.600 223.541 Z M 257.000 224.513 L 256.148 224.200 L 255.658 223.300 L 255.091 221.500 L 255.230 219.800 L 255.746 218.400 L 256.322 217.500 L 257.100 216.959 L 258.200 216.809 L 259.266 217.500 L 260.192 218.900 L 260.385 219.700 L 260.339 222.100 L 259.948 223.200 L 259.100 224.165 L 258.200 224.494 Z M 304.355 222.100 L 303.600 222.516 L 302.100 222.637 L 300.600 222.248 L 298.359 221.200 L 297.735 220.500 L 297.396 219.500 L 297.531 218.600 L 297.976 217.700 L 298.800 217.050 L 299.800 216.970 L 302.400 217.815 L 304.160 218.800 L 304.949 219.800 L 305.128 220.300 L 305.046 220.800 Z M 104.500 290.570 L 105.000 290.581 L 108.100 289.620 L 110.100 289.311 L 111.300 288.752 L 113.126 288.400 L 114.500 287.748 L 116.138 287.500 L 117.600 286.782 L 122.248 285.500 L 123.600 284.866 L 125.400 284.503 L 126.700 283.874 L 128.399 283.500 L 128.983 283.200 L 129.200 282.854 L 129.324 282.100 L 129.230 273.000 L 129.034 271.000 L 128.970 265.900 L 129.123 263.100 L 129.168 234.000 L 129.011 220.600 L 129.190 219.700 L 128.900 218.976 L 127.900 219.033 L 114.400 223.225 L 111.900 223.704 L 108.582 224.600 L 107.400 225.232 L 105.600 225.529 L 104.718 225.900 L 104.174 226.700 L 104.013 231.900 L 103.997 276.100 L 104.129 290.000 Z M 313.253 223.600 L 312.100 225.210 L 311.100 225.374 L 309.800 225.204 L 306.400 223.928 L 305.770 222.800 L 305.832 221.300 L 306.300 220.593 L 307.500 219.781 L 311.100 220.578 L 313.191 221.900 L 313.377 222.700 Z M 287.300 231.008 L 286.600 230.870 L 286.000 230.501 L 285.052 229.200 L 284.841 228.500 L 284.735 226.300 L 284.911 224.200 L 285.650 222.800 L 286.400 222.309 L 287.600 222.094 L 288.700 222.390 L 289.255 223.000 L 289.731 224.400 L 289.814 226.700 L 289.674 228.700 L 289.288 229.800 L 288.300 230.730 Z M 317.500 236.336 L 315.964 235.900 L 314.857 234.500 L 314.847 230.100 L 315.400 229.288 L 316.750 228.500 L 314.700 227.027 L 313.918 225.500 L 314.018 224.600 L 314.483 223.600 L 315.500 222.729 L 316.200 222.536 L 317.300 222.556 L 318.100 222.858 L 319.200 223.839 L 319.588 224.900 L 319.659 226.300 L 319.447 227.400 L 319.100 227.896 L 318.071 228.600 L 319.012 229.300 L 319.350 229.900 L 319.662 231.500 L 319.587 234.300 L 318.900 235.577 L 318.300 236.044 Z M 228.000 232.875 L 226.538 232.200 L 225.784 231.100 L 225.605 230.300 L 225.820 226.400 L 226.326 225.500 L 227.000 225.036 L 228.400 224.641 L 229.600 225.237 L 230.281 226.100 L 230.451 230.200 L 230.264 231.300 L 229.709 232.100 L 229.100 232.533 Z M 258.000 233.439 L 256.900 233.342 L 256.285 233.000 L 255.564 231.800 L 255.224 230.300 L 255.259 228.600 L 255.726 226.700 L 256.500 225.873 L 257.500 225.511 L 258.700 225.710 L 259.400 226.147 L 260.003 227.100 L 260.267 228.600 L 260.282 230.500 L 259.774 232.100 L 259.000 233.079 Z M 287.300 240.928 L 286.500 240.787 L 285.811 240.400 L 284.811 238.300 L 284.951 234.400 L 285.802 232.900 L 286.500 232.365 L 287.500 232.153 L 288.788 232.600 L 289.468 233.400 L 289.740 238.200 L 289.546 239.100 L 288.981 240.200 L 288.200 240.739 Z M 228.100 241.083 L 227.100 240.858 L 226.450 240.400 L 225.771 239.200 L 225.596 238.300 L 225.714 235.600 L 225.900 234.924 L 227.000 233.634 L 228.100 233.112 L 228.900 233.354 L 229.400 233.726 L 230.263 234.900 L 230.485 235.900 L 230.454 238.400 L 230.216 239.600 L 229.200 240.654 Z M 257.600 241.963 L 256.500 241.699 L 255.785 241.000 L 255.237 239.300 L 255.270 236.900 L 255.568 235.800 L 256.099 234.900 L 257.100 234.232 L 257.900 234.056 L 259.100 234.569 L 260.145 235.900 L 260.341 236.700 L 260.351 239.100 L 260.111 240.100 L 259.357 241.400 L 258.600 241.837 Z M 317.200 245.409 L 315.851 245.100 L 314.955 243.800 L 314.760 242.800 L 314.729 239.900 L 314.928 239.000 L 315.800 237.723 L 317.500 236.991 L 318.943 237.700 L 319.434 238.400 L 319.734 240.600 L 319.742 243.000 L 319.548 244.000 L 319.228 244.500 L 318.000 245.208 Z M 228.000 248.923 L 227.200 248.644 L 225.824 247.600 L 225.668 244.000 L 225.900 242.914 L 226.500 242.165 L 227.200 241.739 L 228.400 241.482 L 229.400 241.807 L 230.156 242.700 L 230.510 244.000 L 230.554 246.100 L 230.095 247.800 L 228.700 248.767 Z M 287.500 250.427 L 286.500 250.165 L 285.700 249.580 L 285.067 248.300 L 284.873 247.100 L 284.909 244.600 L 285.239 243.600 L 286.200 242.326 L 287.500 241.951 L 288.600 242.231 L 289.439 243.200 L 289.696 244.300 L 289.760 247.000 L 289.665 248.300 L 289.103 249.500 L 288.473 250.100 Z M 258.100 250.679 L 257.100 250.551 L 256.000 250.004 L 255.598 249.400 L 255.325 248.300 L 255.193 246.200 L 255.457 244.300 L 256.161 243.300 L 257.300 242.844 L 258.500 242.931 L 259.358 243.400 L 259.999 244.300 L 260.314 245.600 L 260.259 248.200 L 260.038 249.100 L 259.169 250.200 Z M 316.900 254.566 L 315.800 254.122 L 314.940 252.500 L 314.710 251.500 L 314.727 248.800 L 314.924 248.000 L 315.904 246.700 L 316.800 246.178 L 317.500 246.021 L 318.500 246.495 L 319.368 247.400 L 319.782 249.600 L 319.551 252.300 L 319.281 253.400 L 318.200 254.341 Z M 227.600 256.568 L 226.435 256.200 L 225.872 255.600 L 225.656 254.400 L 225.703 251.600 L 225.971 250.800 L 226.900 249.840 L 227.600 249.540 L 228.500 249.521 L 229.600 249.874 L 230.281 250.500 L 230.705 252.500 L 230.647 253.900 L 230.294 255.300 L 229.800 256.070 L 229.100 256.401 Z M 287.600 259.792 L 286.500 259.578 L 285.600 259.031 L 285.034 258.000 L 284.808 256.800 L 284.850 254.300 L 285.437 252.800 L 286.200 251.779 L 287.400 251.403 L 288.800 251.781 L 289.478 252.500 L 289.795 254.100 L 289.888 256.800 L 289.728 257.800 L 289.100 259.080 L 288.500 259.556 Z M 257.800 259.966 L 256.600 259.762 L 255.447 258.500 L 255.225 257.600 L 255.206 254.600 L 255.441 253.400 L 255.982 252.400 L 256.800 251.749 L 257.900 251.524 L 259.000 251.840 L 259.836 252.800 L 260.368 254.400 L 260.450 256.500 L 260.269 258.000 L 259.990 258.600 L 258.900 259.688 Z M 317.400 264.166 L 316.300 263.947 L 315.580 263.400 L 314.940 262.500 L 314.740 261.200 L 314.754 258.400 L 314.970 257.400 L 316.300 256.181 L 317.400 255.828 L 318.100 256.057 L 319.376 257.100 L 319.571 257.700 L 319.763 260.400 L 319.187 263.000 L 318.200 263.896 Z M 228.300 264.724 L 227.000 264.565 L 226.266 264.200 L 225.831 263.500 L 225.598 262.200 L 225.756 259.000 L 226.780 257.800 L 227.900 257.388 L 228.800 257.461 L 229.500 257.753 L 230.312 258.800 L 230.622 259.600 L 230.444 260.800 L 230.518 262.500 L 230.272 263.500 L 229.559 264.300 Z M 287.400 269.327 L 286.100 268.974 L 284.993 267.500 L 284.760 264.000 L 284.945 262.800 L 285.700 261.583 L 286.500 260.774 L 287.400 260.550 L 288.300 260.773 L 289.000 261.388 L 289.660 262.400 L 289.865 263.500 L 289.819 266.100 L 289.562 267.600 L 288.700 268.902 L 288.100 269.225 Z M 258.300 269.414 L 257.400 269.410 L 256.537 269.100 L 255.700 268.221 L 255.317 267.400 L 255.351 263.000 L 255.826 261.700 L 256.400 261.007 L 256.800 260.813 L 258.300 260.745 L 259.000 260.941 L 259.941 262.300 L 260.357 263.500 L 260.158 267.600 L 259.300 268.965 Z M 317.300 273.253 L 316.000 272.953 L 315.167 272.000 L 314.873 271.100 L 314.760 268.600 L 314.929 267.400 L 315.520 266.100 L 316.100 265.665 L 317.300 265.360 L 318.794 265.800 L 319.200 266.086 L 319.665 268.900 L 319.501 271.400 L 319.278 272.200 L 318.300 273.013 Z M 235.041 269.700 L 234.371 271.200 L 233.700 271.840 L 232.600 272.129 L 231.100 272.017 L 229.500 271.376 L 228.000 271.048 L 226.262 270.000 L 225.615 268.900 L 225.632 267.700 L 225.987 266.800 L 226.900 265.907 L 228.000 265.586 L 229.100 265.641 L 231.612 267.100 L 233.300 267.451 L 234.100 267.820 L 234.909 268.800 Z M 243.258 272.800 L 242.200 273.982 L 241.100 274.343 L 240.300 274.281 L 237.400 273.356 L 236.600 272.897 L 235.871 272.000 L 235.746 271.100 L 235.988 270.000 L 236.800 269.082 L 238.400 268.660 L 239.200 268.686 L 240.109 269.200 L 241.600 269.567 L 242.300 269.963 L 243.269 271.000 L 243.445 271.900 Z M 288.500 278.339 L 286.700 278.381 L 286.000 278.191 L 284.964 275.800 L 284.969 273.300 L 285.521 271.600 L 286.069 270.700 L 287.300 270.130 L 288.100 270.256 L 289.100 270.856 L 289.536 271.600 L 289.885 272.800 L 289.872 276.300 L 289.300 277.967 Z M 266.582 278.900 L 266.254 279.600 L 265.600 280.231 L 264.500 280.680 L 263.600 280.747 L 261.400 280.073 L 259.830 278.900 L 259.591 278.400 L 259.600 277.015 L 258.400 278.168 L 257.700 278.438 L 256.300 278.470 L 254.100 278.006 L 252.572 276.800 L 252.253 276.000 L 252.270 275.200 L 253.400 273.535 L 255.414 273.300 L 255.863 271.400 L 256.400 270.705 L 257.400 270.323 L 258.500 270.305 L 259.400 270.887 L 260.256 272.200 L 260.358 274.000 L 260.200 276.085 L 261.300 275.436 L 262.300 275.220 L 264.800 275.870 L 266.289 277.100 L 266.634 278.100 Z M 251.654 275.200 L 251.000 275.994 L 250.500 276.257 L 248.600 276.420 L 247.700 276.300 L 244.810 275.000 L 244.238 274.100 L 244.174 273.200 L 244.837 271.700 L 245.400 271.204 L 246.600 270.966 L 248.100 271.254 L 250.000 271.864 L 251.521 272.800 L 251.916 273.800 Z M 317.300 282.167 L 315.800 281.966 L 315.110 281.100 L 314.820 280.000 L 314.778 277.400 L 314.935 276.000 L 315.478 275.000 L 316.200 274.479 L 317.300 274.193 L 318.840 274.800 L 319.398 275.400 L 319.686 279.300 L 319.196 281.500 L 318.400 282.006 Z M 274.268 282.200 L 273.500 282.905 L 272.400 283.120 L 271.400 282.977 L 268.900 282.158 L 267.890 281.300 L 267.477 280.700 L 267.404 279.900 L 267.655 278.900 L 268.595 277.800 L 269.600 277.542 L 271.500 277.735 L 272.631 278.400 L 273.700 278.735 L 274.200 279.127 L 275.085 280.400 Z M 237.800 285.820 L 236.900 285.892 L 235.354 285.300 L 233.900 284.049 L 231.927 281.800 L 231.689 281.100 L 231.784 279.800 L 232.011 279.300 L 232.700 278.628 L 233.900 277.929 L 234.900 277.962 L 236.200 278.762 L 238.162 280.900 L 239.171 282.500 L 239.478 283.700 L 239.182 284.700 Z M 210.700 295.922 L 208.883 295.100 L 207.971 293.300 L 207.906 284.600 L 207.652 282.100 L 207.927 280.600 L 208.600 279.553 L 209.700 278.645 L 211.100 278.473 L 212.500 278.793 L 213.377 279.700 L 213.765 280.600 L 213.989 283.700 L 213.760 293.100 L 213.369 294.400 L 212.200 295.528 Z M 289.800 287.271 L 287.100 287.268 L 285.900 287.052 L 284.100 286.140 L 283.426 285.000 L 283.298 284.200 L 283.520 283.500 L 285.320 281.500 L 285.996 279.900 L 286.800 279.304 L 287.700 279.168 L 288.700 279.385 L 289.227 279.700 L 289.556 280.300 L 289.871 281.400 L 290.029 283.100 L 291.035 285.400 L 290.826 286.100 L 290.204 287.000 Z M 281.500 285.125 L 280.900 285.374 L 279.500 285.440 L 277.500 284.736 L 276.436 284.000 L 275.925 283.400 L 275.683 282.500 L 275.814 281.300 L 276.145 280.600 L 277.100 279.779 L 278.000 279.627 L 280.500 280.274 L 282.000 281.149 L 282.668 282.000 L 282.764 283.000 L 282.550 283.700 Z M 318.900 289.417 L 317.500 289.652 L 316.100 289.343 L 315.400 288.951 L 314.839 288.100 L 314.680 287.200 L 314.956 284.700 L 315.700 283.573 L 316.400 283.037 L 317.200 282.882 L 318.000 282.973 L 319.000 283.474 L 319.354 284.000 L 319.655 285.400 L 319.770 287.400 L 319.357 289.000 Z M 253.278 300.700 L 252.700 300.945 L 251.700 300.811 L 250.200 300.064 L 248.800 299.017 L 247.195 296.800 L 245.300 295.286 L 244.736 294.600 L 244.017 293.100 L 243.941 292.300 L 244.100 291.634 L 242.300 291.902 L 241.029 291.100 L 239.900 290.048 L 238.674 288.400 L 238.425 287.800 L 238.448 286.500 L 238.800 285.861 L 240.200 284.885 L 241.300 284.823 L 241.800 285.059 L 244.100 287.115 L 245.121 288.900 L 245.000 290.643 L 246.400 290.313 L 247.000 290.541 L 248.351 291.700 L 249.878 294.100 L 251.200 294.835 L 253.200 296.956 L 253.929 298.800 L 253.671 300.000 Z M 303.328 289.600 L 301.900 291.067 L 300.600 291.330 L 299.400 291.212 L 298.000 290.653 L 295.200 289.919 L 294.353 288.700 L 294.267 287.700 L 294.722 286.600 L 295.549 285.800 L 296.600 285.615 L 298.100 285.780 L 299.494 286.500 L 301.200 286.756 L 301.800 287.017 L 302.932 288.300 L 303.304 289.100 Z M 312.375 292.100 L 311.742 293.200 L 311.000 293.876 L 309.900 294.055 L 308.500 293.884 L 306.000 293.173 L 304.891 292.400 L 304.229 291.300 L 304.230 290.000 L 304.771 289.100 L 305.900 288.557 L 306.700 288.449 L 308.400 288.641 L 311.300 289.827 L 312.384 291.100 Z M 320.200 295.681 L 319.500 296.262 L 318.500 296.531 L 316.800 296.397 L 315.700 296.070 L 313.581 294.900 L 313.002 293.800 L 313.133 292.800 L 313.687 291.800 L 314.700 290.981 L 316.900 290.639 L 318.400 290.914 L 319.400 291.567 L 320.442 293.000 L 320.704 294.400 Z M 329.575 298.000 L 329.100 298.465 L 327.300 299.148 L 326.600 299.050 L 325.400 298.427 L 323.900 298.127 L 322.600 297.346 L 322.119 296.800 L 321.852 295.800 L 322.010 294.900 L 322.700 293.971 L 324.100 293.672 L 325.900 293.871 L 328.400 294.764 L 329.300 295.293 L 329.945 296.300 L 329.970 296.800 Z M 338.072 300.400 L 337.300 301.210 L 336.200 301.713 L 334.800 301.571 L 333.400 301.146 L 331.700 300.170 L 331.078 299.500 L 330.790 298.500 L 331.058 297.400 L 331.600 296.700 L 332.800 296.427 L 336.200 296.889 L 337.686 297.700 L 338.164 298.200 L 338.360 299.300 Z M 259.600 308.036 L 258.600 308.254 L 257.600 308.061 L 256.017 306.800 L 254.800 305.143 L 254.345 303.800 L 254.288 303.000 L 254.697 301.800 L 255.300 301.120 L 256.400 301.025 L 257.953 301.600 L 259.300 302.666 L 260.251 303.900 L 260.768 305.000 L 260.939 306.300 L 260.459 307.200 Z M 211.200 326.019 L 210.300 325.844 L 208.600 324.938 L 207.770 323.900 L 207.549 322.800 L 207.620 318.000 L 207.836 315.900 L 207.553 305.200 L 207.772 304.600 L 209.200 302.913 L 210.100 302.354 L 210.900 302.193 L 211.800 302.338 L 212.573 302.700 L 213.357 303.500 L 213.886 304.400 L 214.237 305.600 L 214.221 311.600 L 213.679 314.700 L 214.277 317.100 L 214.242 323.400 L 213.967 324.100 L 213.164 325.100 L 211.900 325.866 Z M 265.700 314.455 L 264.800 314.634 L 263.700 314.340 L 261.379 312.300 L 260.561 311.300 L 260.228 310.500 L 260.331 309.600 L 260.800 308.880 L 262.100 308.030 L 262.900 308.029 L 264.430 308.800 L 266.000 310.334 L 266.865 311.800 L 266.992 312.500 L 266.200 313.971 Z M 274.400 321.890 L 272.200 322.466 L 271.000 322.195 L 266.592 317.700 L 266.192 316.500 L 266.696 315.300 L 268.100 314.106 L 268.600 313.908 L 269.300 314.028 L 270.400 314.792 L 273.000 317.364 L 273.981 318.700 L 274.638 320.900 L 274.635 321.500 Z M 281.556 328.800 L 280.800 329.551 L 279.700 329.974 L 279.100 329.925 L 277.900 329.351 L 274.829 325.900 L 274.670 325.000 L 274.904 323.900 L 276.700 322.895 L 277.600 322.902 L 278.300 323.261 L 280.300 324.970 L 281.273 326.200 L 281.897 327.700 L 281.847 328.300 Z M 287.686 335.500 L 286.800 336.230 L 286.200 336.457 L 285.100 336.361 L 284.200 335.895 L 281.740 333.400 L 280.872 332.200 L 280.731 331.300 L 281.374 330.100 L 282.100 329.557 L 282.900 329.362 L 284.000 329.418 L 284.800 329.758 L 287.100 332.156 L 288.077 333.800 L 288.192 334.600 Z M 292.600 342.757 L 291.500 343.106 L 291.000 342.973 L 288.700 341.076 L 287.668 339.500 L 287.239 338.100 L 287.222 337.400 L 287.800 336.598 L 288.700 335.858 L 289.500 335.620 L 290.300 335.929 L 292.441 337.700 L 293.867 339.800 L 294.066 340.600 L 293.842 341.500 Z M 211.000 371.120 L 210.000 370.957 L 208.686 370.100 L 207.781 368.800 L 207.564 367.500 L 207.550 339.500 L 207.892 338.200 L 208.700 336.974 L 210.000 336.051 L 210.700 335.849 L 211.600 336.025 L 213.000 336.794 L 214.075 338.400 L 214.308 339.700 L 214.077 345.800 L 214.242 368.500 L 214.066 369.000 L 213.000 370.332 L 212.000 370.928 Z M 296.500 347.974 L 295.600 347.921 L 295.000 347.574 L 294.300 346.735 L 293.514 346.200 L 292.818 344.700 L 292.842 344.000 L 293.210 343.100 L 294.298 341.900 L 295.300 341.483 L 296.000 341.675 L 297.261 342.700 L 298.429 343.900 L 299.160 345.200 L 299.086 345.700 L 298.500 346.622 Z
  "/>
</svg>
