<svg width="1516" height="392" xmlns="http://www.w3.org/2000/svg" xmlns:xlink="http://www.w3.org/1999/xlink" xml:space="preserve" overflow="hidden"><g transform="translate(-134 -429)"><g><g><g><path d="M13.8261 13.8261 13.8261 64.5217C13.8261 81.1129 25.8087 91.2521 43.3217 91.2521L107.843 91.2521" stroke="#06143D" stroke-width="12.9043" stroke-linecap="round" stroke-linejoin="round" fill="none" transform="matrix(1.0005 0 0 1 524 572)"/><path d="M181.582 91.2521 181.582 41.4782C181.582 24.8869 194.487 13.8261 212 13.8261L246.104 13.8261C263.617 13.8261 275.6 25.8087 275.6 42.3999L275.6 91.2521" stroke="#06143D" stroke-width="12.9043" stroke-linecap="round" stroke-linejoin="round" fill="none" transform="matrix(1.0005 0 0 1 524 572)"/><path d="M183.426 58.9912 273.756 58.9912" stroke="#06143D" stroke-width="12.9043" stroke-linecap="round" stroke-linejoin="round" fill="none" transform="matrix(1.0005 0 0 1 524 572)"/><path d="M351.182 91.2521 351.182 41.4782C351.182 25.8087 364.086 13.8261 381.6 13.8261L429.53 13.8261C446.121 13.8261 455.339 23.9652 455.339 35.9478 455.339 48.8521 445.199 58.9912 429.53 58.9912L351.182 58.9912" stroke="#06143D" stroke-width="12.9043" stroke-linecap="round" stroke-linejoin="round" fill="none" transform="matrix(1.0005 0 0 1 524 572)"/><path d="M524.469 13.8261 524.469 64.5217C524.469 81.1129 536.451 91.2521 553.965 91.2521L616.643 91.2521" stroke="#06143D" stroke-width="12.9043" stroke-linecap="round" stroke-linejoin="round" fill="none" transform="matrix(1.0005 0 0 1 524 572)"/><path d="M687.617 91.2521 687.617 41.4782C687.617 24.8869 700.521 13.8261 718.034 13.8261L753.982 13.8261C771.495 13.8261 782.556 25.8087 782.556 42.3999L782.556 91.2521" stroke="#06143D" stroke-width="12.9043" stroke-linecap="round" stroke-linejoin="round" fill="none" transform="matrix(1.0005 0 0 1 524 572)"/><path d="M689.46 58.9912 780.712 58.9912" stroke="#06143D" stroke-width="12.9043" stroke-linecap="round" stroke-linejoin="round" fill="none" transform="matrix(1.0005 0 0 1 524 572)"/><path d="M944.781 13.8261 878.416 13.8261C862.747 13.8261 852.608 25.8087 852.608 42.3999L852.608 63.5999C852.608 81.1129 864.59 91.2521 878.416 91.2521L944.781 91.2521" stroke="#06143D" stroke-width="12.9043" stroke-linecap="round" stroke-linejoin="round" fill="none" transform="matrix(1.0005 0 0 1 524 572)"/><path d="M1112.54 13.8261 1044.33 13.8261C1027.74 13.8261 1017.6 25.8087 1017.6 42.3999L1017.6 63.5999C1017.6 81.1129 1029.58 91.2521 1044.33 91.2521L1112.54 91.2521" stroke="#06143D" stroke-width="12.9043" stroke-linecap="round" stroke-linejoin="round" fill="none" transform="matrix(1.0005 0 0 1 524 572)"/><path d="M1024.05 58.9912 1112.54 58.9912" stroke="#06143D" stroke-width="12.9043" stroke-linecap="round" stroke-linejoin="round" fill="none" transform="matrix(1.0005 0 0 1 524 572)"/></g></g></g><g><g><g><path d="M192.178 359.171 183.555 359.062 179.2 358.224 176.711 357.426 174.756 356.563 173.156 355.655 172.663 355.111 171.878 354.844 169.955 353.405 161.6 348.479 158.311 346.243 157.183 345.867 156.622 345.255 154.222 344.143 152.104 342.755 151.022 342.347 150.311 341.703 143.289 337.33 142.222 336.88 140.533 335.667 139.2 335.189 138.715 334.755 137.689 334.272 137.156 333.707 136.267 333.368 129.772 329.333 127.467 328.07 125.333 326.61 122.311 325.048 121.156 324.097 120 323.72 119.371 323.2 118.578 322.883 115.02 320.622 114.222 320.291 111.888 318.667 108.124 316.622 103.316 313.6 100.711 312.229 95.424 308.711 91.9111 306.9 89.8666 305.536 84 302.234 82.2915 300.978 81.5084 300.622 80.9102 300.089 77.8346 298.222 75.2 296.845 72.0889 294.916 70.7555 294.363 70.0062 293.689 66.0444 291.532 62.6169 289.155 61.5342 288.178 59.3778 285.667 56.7306 282.044 55.7475 280.267 53.9138 275.822 52.9751 272.178 52.6844 267.822 52.6471 133.778 53.1155 128.978 54.9369 123.911 56.7244 120.356 59.0818 116.978 60.32 115.556 64.6222 111.933 69.1555 109.228 75.8222 105.568 76.9778 104.693 78.2213 104.178 80.3555 102.725 84.3555 100.397 89.0613 97.8666 91.1111 96.5137 93.5111 95.3093 94.2222 94.7449 96.1777 93.7111 104.444 88.6426 108.133 86.7555 110.794 84.9777 120.546 79.3778 121.244 78.7333 122.044 78.5333 122.714 78.0444 123.785 77.6 134.844 70.888 137.244 69.7058 137.931 69.1555 138.933 68.7973 143.733 65.7093 144.978 65.144 149.956 62.0898 152.901 60.6222 154.489 59.5173 160.132 56.3555 162.222 54.9671 164.831 53.6 165.778 52.9235 166.4 52.7111 174.756 47.1138 177.244 46.0195 181.867 44.6604 186.4 44.1004 192.178 44.1822 194.844 44.5733 197.6 45.3271 201.778 47.064 204.533 48.7547 207.613 51.0222 208.444 51.3084 210.311 52.5395 214.714 54.8444 217.003 56.3555 219.111 57.4622 219.928 58.1333 220.8 58.5351 222.844 59.9386 232.91 65.6 233.529 66.1333 238.223 68.8889 239.289 69.3484 242.489 71.3484 243.822 71.9733 248.178 74.4933 248.889 75.0515 254.311 78.0622 259.38 81.2444 263.378 83.4364 268.178 86.5058 269.235 87.0222 269.955 87.6266 274.995 90.4 285.955 97.1049 291.521 100.267 299.382 105.156 300.634 105.689 309.511 110.836 313.067 113.586 315.555 116.204 317.403 118.667 319.173 121.511 320.955 125.156 321.511 127.58 321.989 128.8 322.747 135.022 322.601 172.267 322.643 267.644 321.95 273.955 320.006 279.111 318.949 281.244 316.084 285.511 314.686 287.2 311.902 289.867 309.422 291.681 306.4 293.231 301.6 296.255 296.571 299.111 292.8 301.577 278.848 309.778 273.955 312.933 264.363 318.489 263.555 319.2 256.533 323.165 255.733 323.762 254.755 324.139 243.022 331.519 240.324 332.978 238.4 334.31 236.024 335.467 229.6 339.591 225.511 341.848 223.378 343.271 221.067 344.459 218.933 345.982 207.644 352.52 203.555 355.438 201.689 356.491 197.333 358.15 193.867 358.974ZM189.511 351.429 194.952 350.755 198.311 349.45 199.289 348.899 201.333 347.234 202.145 346.933 209.422 342.267 216.633 338.133 217.333 337.504 218.133 337.235 220.089 335.905 221.084 335.467 224.533 333.16 234.269 327.555 236.533 326.008 237.511 325.573 239.378 324.211 240.267 323.875 243.567 321.955 246.755 319.839 253.589 315.911 258.4 312.825 262.578 310.395 263.378 310.124 264.978 309.196 268.978 306.413 271.289 305.158 276.178 302.027 280.126 299.911 282.222 298.39 283.08 298.044 288.355 294.661 296.267 290.22 304.346 285.155 305.244 284.834 307.659 283.022 308.089 282.36 308.715 282.044 311.2 278.328 312.218 276.533 313.471 273.155 314.106 270.4 314.432 267.733 314.423 134.933 314.098 132.089 313.537 129.6 312.198 125.956 310.578 123.154 308.711 120.574 306.896 118.844 305.329 117.778 302.844 116.484 299.022 114.121 298.133 113.758 296.178 112.41 291.111 109.598 289.155 108.161 288.267 107.857 286.578 106.884 281.333 103.475 280.444 103.14 273.244 98.9013 269.6 96.4577 268.889 96.1991 266.653 94.7555 265.422 94.1902 263.467 92.8613 262.667 92.6142 261.778 91.9813 260.907 91.6444 258.857 90.2222 256.533 89.0115 255.844 88.4444 249.422 84.7662 243.911 81.3449 242.933 81.0533 235.099 76.0889 234.222 75.7724 226.4 71.1849 222.96 68.9778 221.867 68.4746 212.077 62.6666 211.2 62.296 210.606 61.7778 206.712 59.6444 199.111 54.6435 194.482 52.8 189.244 52.0542 182.667 52.7413 177.552 54.8444 174.919 56.5333 174.436 57.0666 173.579 57.4222 172.913 58.0444 172.089 58.2933 171.644 58.8062 170.756 59.1209 170.044 59.6729 167.733 60.8382 164.267 63.1609 161.511 64.5822 159.378 65.9991 156.926 67.2 152.089 70.1991 151.035 70.6666 149.156 71.9458 148.178 72.3902 147.467 72.9813 146.4 73.4995 144.386 74.8444 139.111 77.7031 138.222 78.3813 130.933 82.7378 129.956 83.1066 129.244 83.6969 125.244 85.8666 123.022 87.3369 122.193 87.6444 120.267 88.9857 118.957 89.5111 112.356 93.6533 107.111 96.3591 103.2 98.8169 93.4266 104.356 91.0924 105.867 81.824 111.2 79.6444 112.276 75.8222 114.715 69.9555 117.827 67.1769 119.822 65.4942 121.6 64.3449 123.378 62.9333 125.991 61.8142 128.711 61.4231 131.022 60.9804 132.178 60.8018 134.667 60.7484 267.644 60.8889 269.807 61.7778 273.555 63.5191 277.511 64.5395 279.289 65.6889 280.803 68.7404 283.911 75.8222 287.783 86.68 294.489 87.5413 294.844 92 297.447 98.5253 301.511 106.222 305.979 107.111 306.329 108 306.976 109.333 307.571 109.778 307.301 114.427 302.044 114.933 301.675 115.378 300.978 121.867 294.068 122.487 293.155 123.02 292.8 123.378 292.194 123.964 291.822 127.348 288.178 128.98 286.133 132.978 282.075 136.629 277.778 140.578 273.778 141.956 271.974 142.646 271.467 143.911 269.978 147.022 267.069 147.425 266.4 149.422 264.259 149.956 263.435 151.822 261.694 154.489 258.528 156.889 256.399 157.244 255.819 158.62 254.489 161.398 251.289 163.822 249.279 165.244 247.694 166.133 246.984 167.378 246.654 168.444 246.976 169.197 247.555 169.588 248.444 169.568 249.422 169.156 250.284 165.689 253.665 164.544 255.111 163.911 255.592 161.444 258.222 158.489 261.645 155.911 264.106 151.286 269.422 148.935 271.644 146.206 274.933 142.844 278.314 140.533 280.972 135.812 285.867 134.661 287.378 129.333 292.776 128.915 293.511 127.644 294.783 126.489 296.296 125.867 296.712 119.209 304.089 117.867 305.354 116.632 306.933 116.058 307.378 114.083 309.778 113.836 310.4 114.188 310.755 115.822 311.549 117.067 312.444 123.022 315.842 126.933 318.427 129.244 319.679 139.022 325.749 139.822 326.067 141.89 327.467 147.2 330.329 148.089 331.071 150.4 332.312 158.044 337.113 159.198 337.511 159.772 338.044 167.467 342.58 168.267 342.885 168.807 343.467 169.867 343.95 174.133 346.585 175.644 347.843 178.578 349.581 181.955 350.801 186.196 351.378ZM187.555 240.099 186.4 239.858 185.537 239.2 185.272 238.755 185.057 237.6 184.897 232.889 185.019 223.644 184.842 191.822 185.053 159.822 184.89 154.4 185.115 118.133 185.068 80 184.811 78.4 184.835 76.1777 185.322 74.9333 186.489 73.7946 187.555 73.5369 188.355 73.6702 189.443 74.4 190.076 76.1777 189.95 82.4889 190.057 154.844 189.923 159.378 190.034 234.755 189.919 235.911 190.042 236.889 189.736 238.4 189.422 239.06 188.355 239.922ZM75.4666 268.231 74.3689 267.467 73.8311 266.222 74.2355 264.889 75.2889 263.961 77.8666 263.013 79.3626 262.667 80.5333 262.101 81.9555 261.836 83.2 261.235 87.2 260.051 87.5786 259.644 87.5849 199.644 87.6791 198.667 87.976 197.955 88.5653 197.244 89.2444 196.911 96.2666 194.976 100.178 193.694 101.867 193.44 103.556 192.772 105.156 192.386 106.222 191.88 108.316 191.467 113.778 189.863 114.58 189.422 114.88 188.622 114.852 174.133 115.003 172.889 115.476 172.267 116.978 171.499 126.459 169.067 128.444 168.411 129.433 168.267 130.489 167.761 132.444 167.43 136.889 166.094 138.722 165.778 141.311 164.8 141.452 164.444 141.343 131.467 141.478 130.489 141.778 129.778 142.844 128.737 145.063 127.467 145.6 126.999 150.304 124.533 154.133 122.163 156.32 121.156 165.867 115.375 169.867 113.364 170.933 113.258 171.911 113.542 172.771 114.311 173.171 115.2 173.325 118.756 173.344 236.978 173.214 239.111 172.889 239.985 171.555 240.939 166.044 242.334 164.711 242.846 161.778 243.448 160.444 243.93 158.756 244.178 154.844 245.391 149.867 246.581 148.089 247.232 146.4 247.543 145.333 248.073 143.621 248.355 136.355 250.643 127.023 253.155 126.133 253.573 121.62 254.667 120.356 255.274 118.484 255.644 116.978 256.228 115.595 256.444 114.578 256.924 112.711 257.309 111.467 257.838 110.044 258.122 108.622 258.697 96.5333 262.222 93.6889 263.324 91.8897 263.644 90.1333 264.275 88.7111 264.555 76.1777 268.435ZM201.333 119.382 200.984 119.022 200.757 118.4 200.605 116.089 200.864 115.378 201.597 114.578 203.2 113.543 204.622 113.392 205.155 113.537 206.489 114.398 207.339 115.2 207.627 115.911 207.61 116.8 207.347 117.511 206.844 117.981 205.867 118.291 204.889 118.1 204.089 119.426 203.378 119.779 202.489 119.786ZM212.711 121.787 212 122.106 211.022 122.07 208.622 120.79 207.962 120 207.735 119.467 207.623 118.578 207.854 117.956 208.889 117.032 209.6 116.832 210.578 117.056 212 117.969 213.333 119.108 213.632 119.822 213.525 120.8ZM146.4 242.747 153.156 241.13 157.867 239.711 160 239.349 161.244 238.777 162.864 238.489 164.178 237.903 166.489 237.672 167.378 237.019 168.275 236.889 168.554 236.533 168.381 143.2 168.488 126.044 168.299 121.333 168.483 119.911 168.267 119.554 163.29 122.133 159.646 124.444 155.46 126.756 154.844 127.263 149.348 130.222 148.8 130.74 147.823 131.022 147.2 131.626 146.383 132 146.133 132.444 146.015 133.333 146.166 164.8 146.036 166.311 146.185 167.822 146.107 242.133ZM202.844 127.367 201.867 127.15 201.067 126.602 200.747 125.956 200.546 124.8 200.58 122.311 200.721 121.778 201.6 120.814 202.755 120.496 203.822 120.746 204.579 121.422 204.842 122.222 204.916 124.089 204.772 125.6 204.467 126.578 203.822 127.05ZM219.983 125.6 219.022 126.463 218.4 126.59 217.6 126.423 215.733 125.568 214.452 124.533 213.846 123.822 213.544 122.844 213.763 121.867 215.289 120.725 216.267 120.634 217.067 120.863 220.101 123.022 220.334 124.089ZM225.625 129.778 225.067 130.075 223.644 129.989 220.978 128.263 220.494 127.644 220.282 127.022 220.298 126.133 220.559 125.6 221.6 124.809 222.489 124.662 223.733 125.043 225.333 126.117 226.072 126.933 226.495 128.089 226.374 128.711ZM202.578 142.106 202.044 141.966 201.301 141.422 200.764 140.8 200.548 140.178 200.549 137.333 200.684 136.622 201.222 135.733 202.33 135.022 200.808 133.511 200.567 131.022 200.666 129.422 200.883 128.889 201.689 128.221 202.844 127.754 203.467 127.943 204.267 128.524 204.813 129.689 204.918 131.289 204.715 133.333 204.464 133.867 203.432 135.022 204.666 136.355 204.953 138.222 204.86 140 204.4 141.156 203.644 141.823ZM229.689 135.131 228.444 134.992 227.467 134.158 227.264 133.689 227.144 132.444 226.557 131.022 226.583 130.133 227.066 129.156 227.555 128.762 228.533 128.449 229.333 128.515 230.133 129.007 231.201 130.044 231.571 130.933 231.452 132.8 231.18 133.778 230.4 134.784ZM229.6 147.837 228.089 147.524 227.35 146.667 227.161 146.133 227.422 144.267 228.533 143.111 227.526 142.311 227.188 141.689 226.949 138.4 227.555 136.675 228.355 136.032 229.155 135.82 230.044 135.966 230.923 136.8 231.251 137.422 231.417 138.4 231.413 139.911 231.109 141.422 229.776 143.022 230.578 143.796 231.131 144.622 231.283 145.689 230.418 147.289ZM202.222 149.635 201.689 149.407 200.586 148.089 200.648 144.711 200.907 143.911 201.511 143.188 202.133 142.807 202.933 142.741 203.911 143.053 204.687 144.089 204.963 145.511 204.862 147.644 204.593 148.533 203.876 149.244 203.378 149.475ZM228.533 155.524 227.485 154.933 227.023 154.222 226.943 150.133 227.264 149.156 227.822 148.324 229.778 148.037 230.667 148.568 231.278 149.6 231.313 153.511 230.961 154.667 230.489 155.211 229.689 155.542ZM202.489 157.212 201.867 157 200.749 156.089 200.543 154.222 200.648 152.267 200.847 151.644 201.511 150.784 202.489 150.493 203.378 150.47 204.132 150.844 204.768 152.178 204.746 155.556 204.533 156.19 203.961 156.711 203.2 157.129ZM229.155 163.532 228.089 163.34 227.501 162.667 226.959 161.156 226.872 158.844 227.719 156.978 228.444 156.472 229.511 156.312 230.311 156.712 231.085 157.689 231.387 160.978 231.193 161.778 230.489 162.945 229.867 163.41ZM202.755 164.93 201.6 164.567 200.814 163.733 200.619 162.933 200.553 160.533 200.731 159.555 201.209 158.844 201.867 158.263 202.755 158.078 203.733 158.266 204.451 158.844 204.82 159.733 204.998 161.244 204.847 162.933 204.533 163.84 203.822 164.505ZM237.565 169.778 236.889 170.795 235.822 171.082 233.867 170.808 231.289 169.225 229.6 170.457 228.889 170.539 228.178 170.37 227.328 169.778 226.987 169.067 226.794 167.467 227.06 165.6 227.405 164.978 228 164.43 229.511 164.258 230.133 164.476 231.003 165.333 231.644 166.702 232.178 166.599 233.155 165.908 234.133 166.008 235.021 166.667 236.089 167.001 237.511 167.96 237.77 168.8ZM202.755 177.114 201.6 176.716 200.713 175.644 200.632 174.756 200.768 173.867 202 172.355 200.889 171.564 200.499 170.133 200.628 167.555 200.817 166.756 201.6 165.862 202.667 165.394 203.555 165.651 204.34 166.222 204.74 166.844 204.927 167.822 204.771 170.933 204.444 171.548 203.659 172.267 204.645 173.689 204.827 175.555 204.533 176.087 203.644 176.83ZM244.093 172.533 243.467 173.013 242.222 173.329 239.822 172.531 238.844 171.848 238.426 171.2 238.296 170.311 238.528 169.422 239.378 168.592 240.444 168.392 241.6 168.572 243.378 169.387 244.404 170.4 244.635 170.844 244.611 171.644ZM119.822 250.288 120.889 250.15 123.022 249.361 124.881 249.067 129.422 247.76 130.933 247.475 132.444 246.827 134.222 246.587 135.378 246.042 136.956 245.778 138.133 245.173 140.622 244.543 141.47 243.822 141.34 237.511 141.393 178.133 141.214 172.089 141.362 170.489 140.978 170.07 140.355 170.072 138.756 170.731 136.711 171.12 135.2 171.702 133.067 172.081 130.933 172.806 122.489 174.844 120.025 175.733 119.801 176 119.595 193.067 119.561 249.867ZM251.022 175.151 250.4 175.426 248.978 175.564 246.4 174.471 245.162 172.978 245.166 172.178 245.54 171.378 246.4 170.733 247.467 170.588 250.133 171.475 250.933 171.921 251.58 172.622 251.823 173.511 251.699 174.044ZM229.067 178.063 228.089 177.811 227.251 176.889 226.891 175.555 226.846 173.867 227.22 172.355 227.761 171.555 228.267 171.248 229.6 171.1 230.578 171.462 231.265 172.533 231.459 173.511 231.395 175.378 231.156 176.533 230.706 177.244 229.955 177.885ZM255.644 188.523 253.787 187.911 253.232 186.667 253.125 183.733 253.307 182.489 253.778 181.572 254.867 180.978 255.339 180.533 254.016 179.555 252.988 176.533 252.315 175.378 252.473 174.667 252.819 174.133 253.867 173.271 254.578 173.051 255.784 173.244 257.167 174.311 257.436 174.844 257.63 176.444 257.569 178.044 257.251 179.111 256.806 179.733 255.67 180.533 257.008 181.6 257.531 182.578 257.539 186.489 256.987 187.911ZM202.844 184.099 202.133 183.971 201.511 183.62 200.71 182.844 200.574 182.311 200.604 179.467 200.779 178.667 201.689 177.88 202.844 177.52 203.822 177.795 204.611 178.578 204.848 179.378 204.923 181.422 204.763 182.4 204.411 183.2 203.555 183.893ZM229.511 185.127 228.355 184.93 227.555 184.433 227.155 183.822 226.779 182.489 226.906 180.711 227.301 179.467 228.178 178.662 229.155 178.39 230.044 178.604 230.897 179.378 231.3 180 231.459 180.978 231.445 182.578 231.071 183.911 230.311 184.755ZM203.022 191.635 202.133 191.503 201.257 191.022 200.768 190.4 200.588 189.511 200.613 187.111 200.853 186.133 201.6 185.307 202.755 184.939 203.555 185.101 204.299 185.6 204.737 186.311 204.92 187.2 204.901 189.6 204.74 190.311 203.911 191.331ZM229.422 192.283 228.178 192.1 227.555 191.586 227.247 191.022 226.822 189.333 226.901 187.822 227.363 186.4 228.178 185.776 229.422 185.493 230.222 185.784 231.01 186.667 231.387 187.911 231.419 189.422 231.255 190.4 230.797 191.378 230.133 192.024ZM253.211 194.222 253.179 191.733 253.397 190.755 254.222 189.707 255.289 189.282 256.089 189.361 256.8 189.75 257.778 191.544 258.162 191.467 259.022 190.717 260.267 190.731 261.6 191.156 263.289 192.121 263.75 192.622 263.972 193.244 263.891 193.867 263.539 194.578 262.311 195.443 261.422 195.634 260.533 195.53 259.2 194.957 258.4 194.306 257.867 194.17 257.6 194.366 256.8 195.987 256.355 196.314 255.733 196.48 254.844 196.387 254.133 195.947 253.448 195.111ZM203.022 199.316 201.422 198.788 200.774 198.133 200.584 197.6 200.755 193.6 201.511 192.699 202.578 192.353 203.467 192.519 204.195 193.067 204.659 193.778 204.875 194.755 204.706 197.955 204.089 198.703ZM228.444 199.567 227.687 199.289 227.251 198.489 226.747 196.889 226.871 195.378 227.33 194.133 227.842 193.333 228.533 192.852 229.511 192.719 230.459 193.333 231.282 194.578 231.453 195.289 231.412 197.422 231.065 198.4 230.311 199.258 229.511 199.55ZM270.538 197.422 269.867 197.792 268.533 197.899 267.2 197.554 265.208 196.622 264.653 196 264.352 195.111 264.472 194.311 264.867 193.511 265.6 192.933 266.489 192.862 268.8 193.613 270.364 194.489 271.066 195.378 271.225 195.822 271.152 196.267ZM92.8889 258.284 93.3333 258.294 96.0889 257.44 97.8666 257.165 98.9333 256.668 100.556 256.355 101.778 255.776 103.234 255.555 104.533 254.917 108.665 253.778 109.867 253.214 111.467 252.891 112.622 252.332 114.132 252 114.652 251.733 114.844 251.426 114.955 250.755 114.871 242.667 114.697 240.889 114.64 236.355 114.776 233.867 114.816 208 114.676 196.089 114.836 195.289 114.578 194.645 113.689 194.696 101.689 198.422 99.4666 198.848 96.5173 199.644 95.4666 200.206 93.8666 200.47 93.0826 200.8 92.5991 201.511 92.456 206.133 92.4417 245.422 92.5591 257.778ZM278.447 198.755 277.422 200.187 276.533 200.332 275.378 200.181 272.355 199.047 271.795 198.044 271.851 196.711 272.267 196.083 273.333 195.361 276.533 196.069 278.392 197.244 278.557 197.955ZM255.378 205.34 254.755 205.218 254.222 204.89 253.379 203.733 253.192 203.111 253.098 201.155 253.254 199.289 253.911 198.044 254.578 197.608 255.644 197.417 256.622 197.68 257.115 198.222 257.539 199.467 257.612 201.511 257.488 203.289 257.145 204.267 256.267 205.093ZM282.222 210.076 280.857 209.689 279.873 208.444 279.864 204.533 280.355 203.811 281.555 203.111 279.733 201.802 279.038 200.444 279.127 199.644 279.54 198.755 280.444 197.981 281.067 197.81 282.044 197.827 282.755 198.096 283.733 198.968 284.078 199.911 284.141 201.155 283.953 202.133 283.644 202.574 282.73 203.2 283.566 203.822 283.867 204.355 284.144 205.778 284.077 208.267 283.467 209.402 282.933 209.817ZM202.667 207 201.367 206.4 200.697 205.422 200.538 204.711 200.729 201.244 201.179 200.444 201.778 200.032 203.022 199.681 204.089 200.211 204.694 200.978 204.845 204.622 204.679 205.6 204.186 206.311 203.644 206.696ZM229.333 207.501 228.355 207.415 227.809 207.111 227.168 206.044 226.866 204.711 226.897 203.2 227.312 201.511 228 200.776 228.889 200.454 229.955 200.631 230.578 201.019 231.114 201.867 231.348 203.2 231.362 204.889 230.91 206.311 230.222 207.181ZM255.378 214.158 254.667 214.033 254.054 213.689 253.165 211.822 253.29 208.355 254.046 207.022 254.667 206.547 255.555 206.358 256.7 206.755 257.305 207.467 257.547 211.733 257.374 212.533 256.872 213.511 256.178 213.99ZM202.755 214.296 201.867 214.096 201.289 213.689 200.685 212.622 200.53 211.822 200.635 209.422 200.8 208.821 201.778 207.675 202.755 207.211 203.467 207.426 203.911 207.756 204.678 208.8 204.875 209.689 204.848 211.911 204.636 212.978 203.733 213.915ZM228.978 215.078 228 214.843 227.364 214.222 226.877 212.711 226.907 210.578 227.171 209.6 227.643 208.8 228.533 208.206 229.244 208.05 230.311 208.506 231.24 209.689 231.414 210.4 231.423 212.533 231.21 213.422 230.539 214.578 229.867 214.966ZM281.955 218.141 280.756 217.867 279.96 216.711 279.787 215.822 279.759 213.244 279.936 212.444 280.711 211.309 282.222 210.659 283.505 211.289 283.941 211.911 284.208 213.867 284.215 216 284.043 216.889 283.758 217.333 282.667 217.963ZM202.667 221.265 201.955 221.017 200.732 220.089 200.594 216.889 200.8 215.923 201.333 215.258 201.955 214.879 203.022 214.651 203.911 214.939 204.583 215.733 204.898 216.889 204.937 218.755 204.529 220.267 203.289 221.126ZM255.555 222.602 254.667 222.369 253.955 221.849 253.393 220.711 253.22 219.644 253.252 217.422 253.546 216.533 254.4 215.401 255.555 215.067 256.533 215.316 257.279 216.178 257.507 217.155 257.564 219.555 257.48 220.711 256.98 221.778 256.42 222.311ZM229.422 222.826 228.533 222.712 227.555 222.226 227.198 221.689 226.955 220.711 226.838 218.844 227.073 217.155 227.699 216.267 228.711 215.861 229.778 215.939 230.54 216.355 231.11 217.155 231.39 218.311 231.341 220.622 231.145 221.422 230.372 222.4ZM281.689 226.281 280.711 225.886 279.947 224.444 279.742 223.555 279.757 221.155 279.932 220.444 280.803 219.289 281.6 218.825 282.222 218.685 283.111 219.107 283.883 219.911 284.251 221.867 284.045 224.267 283.805 225.244 282.844 226.081ZM202.311 228.06 201.275 227.733 200.775 227.2 200.583 226.133 200.625 223.644 200.863 222.933 201.689 222.08 202.311 221.813 203.111 221.796 204.089 222.11 204.694 222.667 205.071 224.444 205.019 225.689 204.706 226.933 204.267 227.618 203.644 227.912ZM255.644 230.926 254.667 230.736 253.867 230.25 253.363 229.333 253.163 228.267 253.2 226.044 253.722 224.711 254.4 223.803 255.467 223.469 256.711 223.805 257.314 224.444 257.595 225.867 257.678 228.267 257.536 229.155 256.978 230.293 256.444 230.716ZM229.155 231.081 228.089 230.899 227.064 229.778 226.867 228.978 226.85 226.311 227.059 225.244 227.539 224.355 228.267 223.777 229.244 223.577 230.222 223.858 230.965 224.711 231.438 226.133 231.511 228 231.35 229.333 231.102 229.867 230.133 230.834ZM282.133 234.814 281.155 234.619 280.515 234.133 279.947 233.333 279.769 232.178 279.781 229.689 279.973 228.8 281.155 227.716 282.133 227.403 282.755 227.606 283.89 228.533 284.063 229.067 284.234 231.467 283.722 233.778 282.844 234.574ZM202.933 235.31 201.778 235.169 201.125 234.844 200.739 234.222 200.531 233.067 200.672 230.222 201.582 229.155 202.578 228.789 203.378 228.854 204 229.114 204.722 230.044 204.997 230.755 204.839 231.822 204.905 233.333 204.686 234.222 204.052 234.933ZM255.467 239.402 254.311 239.088 253.327 237.778 253.12 234.667 253.284 233.6 253.955 232.518 254.667 231.799 255.467 231.6 256.267 231.798 256.889 232.345 257.475 233.244 257.658 234.222 257.617 236.533 257.388 237.867 256.622 239.024 256.089 239.311ZM229.6 239.479 228.8 239.475 228.033 239.2 227.289 238.419 226.948 237.689 226.979 233.778 227.401 232.622 227.911 232.006 228.267 231.834 229.6 231.773 230.222 231.947 231.059 233.155 231.428 234.222 231.251 237.867 230.489 239.08ZM282.044 242.891 280.889 242.625 280.148 241.778 279.887 240.978 279.787 238.755 279.937 237.689 280.462 236.533 280.978 236.147 282.044 235.875 283.372 236.267 283.733 236.521 284.147 239.022 284.001 241.244 283.803 241.955 282.933 242.678ZM208.925 239.733 208.33 241.067 207.733 241.635 206.755 241.892 205.422 241.793 204 241.223 202.667 240.931 201.122 240 200.547 239.022 200.562 237.955 200.877 237.155 201.689 236.362 202.667 236.076 203.644 236.125 205.877 237.422 207.378 237.734 208.089 238.062 208.808 238.933ZM216.229 242.489 215.289 243.539 214.311 243.86 213.6 243.805 211.022 242.983 210.311 242.575 209.663 241.778 209.552 240.978 209.767 240 210.489 239.184 211.911 238.809 212.622 238.832 213.43 239.289 214.755 239.615 215.378 239.967 216.239 240.889 216.395 241.689ZM256.444 247.412 254.844 247.45 254.222 247.281 253.301 245.155 253.306 242.933 253.796 241.422 254.283 240.622 255.378 240.115 256.089 240.227 256.978 240.761 257.365 241.422 257.675 242.489 257.664 245.6 257.155 247.082ZM236.962 247.911 236.67 248.533 236.089 249.094 235.111 249.493 234.311 249.553 232.355 248.954 230.96 247.911 230.747 247.467 230.755 246.235 229.689 247.26 229.067 247.5 227.822 247.529 225.867 247.116 224.508 246.044 224.225 245.333 224.24 244.622 225.244 243.142 227.035 242.933 227.434 241.244 227.911 240.627 228.8 240.287 229.778 240.271 230.578 240.788 231.339 241.955 231.429 243.555 231.289 245.409 232.267 244.832 233.155 244.64 235.378 245.218 236.701 246.311 237.008 247.2ZM223.692 244.622 223.111 245.328 222.667 245.562 220.978 245.707 220.178 245.6 217.609 244.444 217.1 243.644 217.043 242.844 217.633 241.511 218.133 241.07 219.2 240.859 220.533 241.115 222.222 241.657 223.574 242.489 223.925 243.378ZM282.044 250.815 280.711 250.636 280.098 249.867 279.84 248.889 279.803 246.578 279.942 245.333 280.425 244.444 281.067 243.981 282.044 243.727 283.413 244.267 283.909 244.8 284.165 248.267 283.73 250.222 283.022 250.672ZM243.794 250.844 243.111 251.471 242.133 251.662 241.244 251.535 239.022 250.807 238.124 250.044 237.757 249.511 237.692 248.8 237.915 247.911 238.751 246.933 239.644 246.704 241.333 246.875 242.339 247.467 243.289 247.764 243.733 248.113 244.52 249.244ZM211.378 254.062 210.578 254.126 209.203 253.6 207.911 252.488 206.157 250.489 205.946 249.867 206.03 248.711 206.232 248.267 206.844 247.669 207.911 247.048 208.8 247.077 209.955 247.788 211.699 249.689 212.596 251.111 212.869 252.178 212.606 253.067ZM187.289 263.042 185.674 262.311 184.863 260.711 184.805 252.978 184.579 250.755 184.824 249.422 185.422 248.491 186.4 247.684 187.644 247.531 188.889 247.816 189.668 248.622 190.013 249.422 190.212 252.178 190.009 260.533 189.661 261.689 188.622 262.691ZM257.6 255.352 255.2 255.349 254.133 255.157 252.533 254.347 251.934 253.333 251.82 252.622 252.018 252 253.618 250.222 254.219 248.8 254.933 248.27 255.733 248.149 256.622 248.342 257.091 248.622 257.383 249.155 257.663 250.133 257.803 251.644 258.698 253.689 258.512 254.311 257.959 255.111ZM250.222 253.444 249.689 253.666 248.444 253.724 246.667 253.099 245.721 252.444 245.267 251.911 245.051 251.111 245.168 250.044 245.462 249.422 246.311 248.692 247.111 248.557 249.333 249.132 250.667 249.91 251.26 250.667 251.346 251.555 251.155 252.178ZM283.467 257.259 282.222 257.468 280.978 257.194 280.355 256.845 279.857 256.089 279.715 255.289 279.961 253.067 280.622 252.065 281.244 251.588 281.955 251.451 282.667 251.531 283.555 251.977 283.87 252.444 284.138 253.689 284.24 255.467 283.873 256.889ZM225.136 267.289 224.622 267.507 223.733 267.387 222.4 266.723 221.155 265.793 219.729 263.822 218.044 262.476 217.543 261.867 216.904 260.533 216.836 259.822 216.978 259.23 215.378 259.468 214.248 258.755 213.244 257.82 212.155 256.355 211.933 255.822 211.954 254.667 212.267 254.099 213.511 253.231 214.489 253.176 214.933 253.386 216.978 255.213 217.885 256.8 217.778 258.349 219.022 258.056 219.555 258.259 220.756 259.289 222.114 261.422 223.289 262.075 225.067 263.961 225.715 265.6 225.485 266.667ZM269.625 257.422 268.355 258.726 267.2 258.96 266.133 258.855 264.889 258.358 262.4 257.706 261.647 256.622 261.571 255.733 261.975 254.755 262.71 254.044 263.644 253.88 264.978 254.027 266.217 254.667 267.733 254.894 268.267 255.126 269.273 256.267 269.603 256.978ZM277.667 259.644 277.104 260.622 276.444 261.223 275.467 261.382 274.222 261.23 272 260.598 271.014 259.911 270.426 258.933 270.427 257.778 270.907 256.978 271.911 256.495 272.622 256.399 274.133 256.57 276.711 257.624 277.675 258.755ZM284.622 262.827 284 263.344 283.111 263.583 281.6 263.464 280.622 263.173 278.739 262.133 278.224 261.155 278.34 260.267 278.833 259.378 279.733 258.65 281.689 258.346 283.022 258.59 283.911 259.171 284.837 260.444 285.07 261.689ZM292.955 264.889 292.533 265.302 290.933 265.909 290.311 265.822 289.244 265.268 287.911 265.002 286.755 264.307 286.328 263.822 286.091 262.933 286.231 262.133 286.844 261.307 288.089 261.042 289.689 261.219 291.911 262.012 292.711 262.483 293.284 263.378 293.307 263.822ZM300.508 267.022 299.822 267.742 298.844 268.189 297.6 268.063 296.355 267.685 294.844 266.818 294.291 266.222 294.035 265.333 294.274 264.355 294.755 263.733 295.822 263.491 298.844 263.901 300.165 264.622 300.59 265.067 300.764 266.044ZM230.755 273.81 229.867 274.003 228.978 273.832 227.571 272.711 226.489 271.238 226.084 270.044 226.034 269.333 226.397 268.267 226.933 267.662 227.911 267.578 229.291 268.089 230.489 269.036 231.334 270.133 231.794 271.111 231.946 272.267 231.519 273.067ZM187.733 289.795 186.933 289.639 185.422 288.834 184.684 287.911 184.488 286.933 184.551 282.667 184.743 280.8 184.491 271.289 184.686 270.755 185.955 269.256 186.755 268.759 187.467 268.616 188.267 268.745 188.954 269.067 189.651 269.778 190.121 270.578 190.433 271.644 190.419 276.978 189.937 279.733 190.468 281.867 190.437 287.467 190.193 288.089 189.479 288.978 188.355 289.659ZM236.178 279.515 235.378 279.675 234.4 279.413 232.337 277.6 231.61 276.711 231.314 276 231.405 275.2 231.822 274.56 232.978 273.804 233.689 273.803 235.049 274.489 236.444 275.852 237.213 277.155 237.326 277.778 236.622 279.085ZM243.911 286.124 241.955 286.636 240.889 286.395 236.971 282.4 236.615 281.333 237.063 280.267 238.311 279.205 238.755 279.029 239.378 279.136 240.355 279.815 242.667 282.101 243.539 283.289 244.123 285.244 244.12 285.778ZM250.272 292.267 249.6 292.934 248.622 293.31 248.089 293.267 247.022 292.756 244.292 289.689 244.151 288.889 244.359 287.911 245.955 287.018 246.755 287.024 247.378 287.343 249.155 288.862 250.02 289.955 250.575 291.289 250.531 291.822ZM255.721 298.222 254.933 298.871 254.4 299.073 253.422 298.987 252.622 298.573 250.435 296.355 249.664 295.289 249.539 294.489 250.11 293.422 250.755 292.939 251.467 292.766 252.444 292.816 253.155 293.118 255.2 295.25 256.068 296.711 256.171 297.422ZM260.089 304.673 259.111 304.983 258.667 304.865 256.622 303.179 255.705 301.778 255.323 300.533 255.308 299.911 255.822 299.198 256.622 298.54 257.333 298.329 258.044 298.603 259.947 300.178 261.215 302.044 261.392 302.755 261.193 303.555ZM187.555 329.884 186.667 329.739 185.499 328.978 184.694 327.822 184.501 326.667 184.489 301.778 184.793 300.622 185.511 299.532 186.667 298.712 187.289 298.532 188.089 298.689 189.333 299.372 190.289 300.8 190.496 301.955 190.291 307.378 190.437 327.555 190.281 328 189.333 329.184 188.444 329.714ZM263.555 309.31 262.755 309.263 262.222 308.955 261.6 308.209 260.901 307.733 260.283 306.4 260.304 305.778 260.631 304.978 261.598 303.911 262.489 303.54 263.111 303.711 264.232 304.622 265.27 305.689 265.92 306.844 265.854 307.289 265.333 308.108Z" fill="#0A1436" fill-rule="evenodd" transform="matrix(1.00191 0 0 1 134 429)"/></g></g></g></g></svg>